<?xml version="1.0" encoding="UTF-8" standalone="no"?>
<!DOCTYPE svg PUBLIC "-//W3C//DTD SVG 1.1//EN" "http://www.w3.org/Graphics/SVG/1.1/DTD/svg11.dtd">
<svg width="100%" height="100%" viewBox="0 0 3292 1732" version="1.1" xmlns="http://www.w3.org/2000/svg" xmlns:xlink="http://www.w3.org/1999/xlink" xml:space="preserve" xmlns:serif="http://www.serif.com/" style="fill-rule:evenodd;clip-rule:evenodd;stroke-linecap:round;stroke-linejoin:round;stroke-miterlimit:1.5;">
    <g transform="matrix(1,0,0,1.06933,-68.0418,-24.2662)">
        <rect id="ArtBoard1" x="68.042" y="22.693" width="3291.38" height="1619.2" style="fill:none;"/>
        <g id="ArtBoard11" serif:id="ArtBoard1">
            <g transform="matrix(1.05,0,0,0.935164,-153.501,2.04992)">
                <path d="M236.22,687.028C234.692,687.028 233.451,685.725 233.451,684.12C233.451,682.516 234.692,681.213 236.22,681.213C236.22,681.213 2069.49,677.817 2787.4,676.926C2887.17,676.802 2965.4,676.63 3014.17,676.744C3016.67,676.75 3019.09,676.685 3021.43,676.784C3033.15,677.275 3042.79,678.462 3050.46,679.065C3051.56,679.151 3052.66,679.001 3053.63,679.314C3055.04,679.765 3055.52,680.855 3056.81,681.213C3057.73,681.469 3058.67,681.213 3059.53,681.213L3070.87,681.213C3072.39,681.213 3073.64,682.516 3073.64,684.12C3073.64,685.725 3072.39,687.028 3070.87,687.028L3059.53,687.028C3058.67,687.028 3057.73,686.772 3056.81,687.028C3055.52,687.386 3055.04,688.476 3053.63,688.927C3052.66,689.24 3051.56,689.09 3050.46,689.176C3042.79,689.779 3033.15,690.966 3021.43,691.457C3019.09,691.556 3016.67,691.491 3014.17,691.497C2965.4,691.611 2887.17,691.439 2787.4,691.315C2069.49,690.424 236.22,687.028 236.22,687.028Z" style="fill:rgb(255,14,0);"/>
            </g>
            <g transform="matrix(1.05,0,0,0.935164,-153.501,532.221)">
                <path d="M236.22,687.023C234.695,687.023 233.456,685.722 233.456,684.12C233.456,682.518 234.695,681.218 236.22,681.218C236.22,681.218 1063.06,678.463 1823.62,676.662C1963.8,676.331 2101.73,676.028 2231.81,675.901C2327.51,675.808 2418.96,675.613 2503.94,675.876C2609.94,676.205 2705.86,676.894 2787.4,677.662C2962.21,679.309 3070.87,681.218 3070.87,681.218C3072.39,681.218 3073.63,682.518 3073.63,684.12C3073.63,685.722 3072.39,687.023 3070.87,687.023C3070.87,687.023 2962.21,688.932 2787.4,690.579C2705.86,691.347 2609.94,692.035 2503.94,692.365C2418.96,692.628 2327.51,692.433 2231.81,692.34C2101.73,692.213 1963.8,691.91 1823.62,691.579C1063.06,689.778 236.22,687.023 236.22,687.023Z" style="fill:rgb(0,45,255);"/>
            </g>
            <g transform="matrix(1,0,0,0.935164,2153.23,91.932)">
                <g transform="matrix(41.6667,0,0,41.6667,1076.76,599.37)">
                </g>
                <text x="938.003px" y="599.37px" style="font-family:'ComicSansMS-Bold', 'Comic Sans MS', cursive;font-weight:700;font-size:41.667px;">master</text>
            </g>
            <g transform="matrix(1,0,0,0.935164,256.7,316.794)">
                <g transform="matrix(41.6667,0,0,41.6667,1174.17,599.37)">
                </g>
                <text x="938.003px" y="599.37px" style="font-family:'ComicSansMS', 'Comic Sans MS', cursive;font-size:41.667px;">release/11.0</text>
            </g>
            <g transform="matrix(1,0,0,0.935164,1939.51,-263.768)">
                <g transform="matrix(41.6667,0,0,41.6667,1144.91,599.37)">
                </g>
                <text x="938.003px" y="599.37px" style="font-family:'ComicSansMS', 'Comic Sans MS', cursive;font-size:41.667px;">support/11</text>
            </g>
            <g transform="matrix(1,0,0,0.935164,2153.23,622.103)">
                <g transform="matrix(41.6667,0,0,41.6667,1084.93,599.37)">
                </g>
                <text x="938.003px" y="599.37px" style="font-family:'ComicSansMS-Bold', 'Comic Sans MS', cursive;font-weight:700;font-size:41.667px;">develop</text>
            </g>
            <g transform="matrix(1,0,0,0.935164,-716.206,144.837)">
                <g transform="matrix(37.5,0,0,37.5,997.054,599.37)">
                </g>
                <g transform="matrix(37.5,0,0,37.5,1012.98,599.37)">
                </g>
                <g transform="matrix(37.5,0,0,37.5,1192.01,599.37)">
                </g>
                <text x="938.003px" y="599.37px" style="font-family:'ComicSansMS', 'Comic Sans MS', cursive;font-size:37.5px;">hotﬁx/JIRA-1</text>
            </g>
            <g transform="matrix(1.85159,0,0,0.935164,-435.503,465.091)">
                <path d="M375.454,849.885L566.929,850.394" style="fill:none;"/>
                <path d="M375.453,851.321C375.025,851.32 374.678,850.675 374.679,849.883C374.679,849.091 375.027,848.448 375.455,848.449C375.455,848.449 499.29,846.482 547.784,846.936C559.593,847.047 566.931,847.463 566.931,847.463C567.805,847.465 568.513,848.78 568.512,850.398C568.511,852.015 567.8,853.327 566.927,853.324C566.927,853.324 559.588,853.702 547.779,853.75C499.284,853.946 375.453,851.321 375.453,851.321Z" style="fill:rgb(37,16,15);"/>
            </g>
            <g transform="matrix(1,0,0,0.935164,-90.3138,323.825)">
                <g transform="matrix(37.5,0,0,37.5,997.054,599.37)">
                </g>
                <g transform="matrix(37.5,0,0,37.5,1012.98,599.37)">
                </g>
                <g transform="matrix(37.5,0,0,37.5,1198.01,599.37)">
                </g>
                <text x="938.003px" y="599.37px" style="font-family:'ComicSansMS', 'Comic Sans MS', cursive;font-size:37.5px;">hotﬁx/JIRA-4</text>
            </g>
            <g transform="matrix(0.545939,-0.783504,0.837825,0.510542,211.861,1043.37)">
                <g transform="matrix(37.5,0,0,37.5,1180.32,599.37)">
                </g>
                <text x="938.003px" y="599.37px" style="font-family:'ComicSansMS', 'Comic Sans MS', cursive;font-size:37.5px;">version/11.0.0</text>
            </g>
            <g transform="matrix(0.5,0,0,0.467582,637.837,509.272)">
                <path d="M283.465,661.417L377.953,850.394" style="fill:none;"/>
                <path d="M282.897,661.701C282.741,661.388 282.868,661.007 283.181,660.85C283.494,660.693 283.875,660.82 284.032,661.134C284.032,661.134 350.947,780.387 374.6,828.448C380.364,840.161 383.195,847.772 383.195,847.772C384.642,850.666 383.467,854.189 380.574,855.636C377.681,857.083 374.157,855.908 372.71,853.015C372.71,853.015 368.32,846.183 362.408,834.544C338.151,786.785 282.897,661.701 282.897,661.701Z" style="fill:rgb(37,16,15);"/>
            </g>
            <g transform="matrix(1.5,0,0,0.935164,259.884,111.643)">
                <path d="M377.953,850.394L566.929,850.394" style="fill:none;"/>
                <path d="M377.953,850.711C377.836,850.711 377.741,850.569 377.741,850.394C377.741,850.219 377.836,850.077 377.953,850.077C377.953,850.077 500.164,846.817 548.032,846.986C559.688,847.027 566.929,847.463 566.929,847.463C568.007,847.463 568.883,848.776 568.883,850.394C568.883,852.011 568.007,853.324 566.929,853.324C566.929,853.324 559.688,853.76 548.032,853.801C500.164,853.97 377.953,850.711 377.953,850.711Z" style="fill:rgb(37,16,15);"/>
            </g>
            <g transform="matrix(0.5,0,0,0.467582,826.813,509.272)">
                <path d="M566.929,850.394L661.417,661.417" style="fill:none;"/>
                <path d="M567.497,850.677C567.34,850.991 566.959,851.118 566.645,850.961C566.332,850.804 566.205,850.423 566.362,850.11C566.362,850.11 621.616,725.026 645.873,677.267C651.785,665.628 656.175,658.796 656.175,658.796C657.622,655.903 661.145,654.728 664.039,656.175C666.932,657.622 668.107,661.145 666.66,664.039C666.66,664.039 663.829,671.65 658.064,683.363C634.411,731.424 567.497,850.677 567.497,850.677Z" style="fill:rgb(37,16,15);"/>
            </g>
            <g transform="matrix(0.5,0,0,0.467582,23.6639,332.548)">
                <path d="M283.465,661.417L377.953,850.394" style="fill:none;"/>
                <path d="M282.897,661.701C282.741,661.388 282.868,661.007 283.181,660.85C283.494,660.693 283.875,660.82 284.032,661.134C284.032,661.134 350.947,780.387 374.6,828.448C380.364,840.161 383.195,847.772 383.195,847.772C384.642,850.666 383.467,854.189 380.574,855.636C377.681,857.083 374.157,855.908 372.71,853.015C372.71,853.015 368.32,846.183 362.408,834.544C338.151,786.785 282.897,661.701 282.897,661.701Z" style="fill:rgb(37,16,15);"/>
            </g>
            <g transform="matrix(1.5,0,0,0.935164,-354.289,-65.0808)">
                <path d="M377.953,850.394L566.929,850.394" style="fill:none;"/>
                <path d="M377.953,850.711C377.836,850.711 377.741,850.569 377.741,850.394C377.741,850.219 377.836,850.077 377.953,850.077C377.953,850.077 500.164,846.817 548.032,846.986C559.688,847.027 566.929,847.463 566.929,847.463C568.007,847.463 568.883,848.776 568.883,850.394C568.883,852.011 568.007,853.324 566.929,853.324C566.929,853.324 559.688,853.76 548.032,853.801C500.164,853.97 377.953,850.711 377.953,850.711Z" style="fill:rgb(37,16,15);"/>
            </g>
            <g transform="matrix(0.5,0,0,0.467582,212.64,332.548)">
                <path d="M566.929,850.394L661.417,661.417" style="fill:none;"/>
                <path d="M567.497,850.677C567.34,850.991 566.959,851.118 566.645,850.961C566.332,850.804 566.205,850.423 566.362,850.11C566.362,850.11 621.616,725.026 645.873,677.267C651.785,665.628 656.175,658.796 656.175,658.796C657.622,655.903 661.145,654.728 664.039,656.175C666.932,657.622 668.107,661.145 666.66,664.039C666.66,664.039 663.829,671.65 658.064,683.363C634.411,731.424 567.497,850.677 567.497,850.677Z" style="fill:rgb(37,16,15);"/>
            </g>
            <g transform="matrix(1,0,0,0.935164,447.133,147.577)">
                <g transform="matrix(37.5,0,0,37.5,997.054,599.37)">
                </g>
                <g transform="matrix(37.5,0,0,37.5,1012.98,599.37)">
                </g>
                <g transform="matrix(37.5,0,0,37.5,1198.01,599.37)">
                </g>
                <text x="938.003px" y="599.37px" style="font-family:'ComicSansMS', 'Comic Sans MS', cursive;font-size:37.5px;">hotﬁx/JIRA-6</text>
            </g>
            <g transform="matrix(0.5,0,0,0.467582,1133.9,332.548)">
                <path d="M283.465,661.417L377.953,850.394" style="fill:none;"/>
                <path d="M282.897,661.701C282.741,661.388 282.868,661.007 283.181,660.85C283.494,660.693 283.875,660.82 284.032,661.134C284.032,661.134 350.947,780.387 374.6,828.448C380.364,840.161 383.195,847.772 383.195,847.772C384.642,850.666 383.467,854.189 380.574,855.636C377.681,857.083 374.157,855.908 372.71,853.015C372.71,853.015 368.32,846.183 362.408,834.544C338.151,786.785 282.897,661.701 282.897,661.701Z" style="fill:rgb(37,16,15);"/>
            </g>
            <g transform="matrix(2.03125,0,0,0.935164,555.16,-65.0808)">
                <path d="M377.953,850.394L566.929,850.394" style="fill:none;"/>
                <path d="M377.953,850.711C377.867,850.711 377.797,850.569 377.797,850.394C377.797,850.219 377.867,850.077 377.953,850.077C377.953,850.077 500.167,846.817 548.032,846.986C559.686,847.027 566.929,847.463 566.929,847.463C567.725,847.463 568.372,848.776 568.372,850.394C568.372,852.011 567.725,853.324 566.929,853.324C566.929,853.324 559.686,853.76 548.032,853.801C500.167,853.97 377.953,850.711 377.953,850.711Z" style="fill:rgb(37,16,15);"/>
            </g>
            <g transform="matrix(0.5,0,0,0.467582,1423.27,332.548)">
                <path d="M566.929,850.394L661.417,661.417" style="fill:none;"/>
                <path d="M567.497,850.677C567.34,850.991 566.959,851.118 566.645,850.961C566.332,850.804 566.205,850.423 566.362,850.11C566.362,850.11 621.616,725.026 645.873,677.267C651.785,665.628 656.175,658.796 656.175,658.796C657.622,655.903 661.145,654.728 664.039,656.175C666.932,657.622 668.107,661.145 666.66,664.039C666.66,664.039 663.829,671.65 658.064,683.363C634.411,731.424 567.497,850.677 567.497,850.677Z" style="fill:rgb(37,16,15);"/>
            </g>
            <g transform="matrix(1,0,0,0.935164,-678.505,750.297)">
                <g transform="matrix(37.5,0,0,37.5,1226.65,599.37)">
                </g>
                <text x="938.003px" y="599.37px" style="font-family:'ComicSansMS', 'Comic Sans MS', cursive;font-size:37.5px;">feature/JIRA-2</text>
            </g>
            <g transform="matrix(0.396981,0,0,0.467582,109.844,862.719)">
                <path d="M283.465,661.417L377.953,850.394" style="fill:none;"/>
                <path d="M280.103,662.477C279.367,661.004 280.275,659.333 282.13,658.749C283.985,658.164 286.089,658.885 286.826,660.358C286.826,660.358 353.303,780.863 376.48,828.982C382.133,840.718 384.814,848.231 384.814,848.231C386.318,851.238 384.464,854.648 380.677,855.841C376.89,857.035 372.595,855.563 371.091,852.556C371.091,852.556 366.552,845.629 360.528,834.01C335.826,786.371 280.103,662.477 280.103,662.477Z" style="fill:rgb(37,16,15);"/>
            </g>
            <g transform="matrix(0.5,0,0,0.467582,330.75,862.719)">
                <path d="M566.929,850.394L661.417,661.417" style="fill:none;"/>
                <path d="M569.497,851.678C568.789,853.095 567.062,853.67 565.645,852.962C564.228,852.253 563.652,850.527 564.361,849.11C564.361,849.11 621.353,724.854 645.874,677.268C651.854,665.663 656.175,658.796 656.175,658.796C657.622,655.903 661.145,654.728 664.039,656.175C666.932,657.622 668.107,661.145 666.66,664.039C666.66,664.039 663.759,671.616 658.063,683.362C634.706,731.531 569.497,851.678 569.497,851.678Z" style="fill:rgb(37,16,15);"/>
            </g>
            <g transform="matrix(2.34327,0,0,0.935164,295.5,464.615)">
                <path d="M377.953,850.394L730.781,851.411" style="fill:rgb(38,17,17);"/>
                <path d="M377.952,852.151C377.538,852.149 377.203,851.361 377.203,850.392C377.204,849.422 377.54,848.636 377.954,848.637L599.732,848.056C599.732,848.056 652.866,847.635 691.468,847.89C713.491,848.035 730.783,848.48 730.783,848.48C731.473,848.482 732.033,849.797 732.032,851.415C732.031,853.032 731.47,854.344 730.78,854.342C730.78,854.342 713.487,854.687 691.464,854.705C652.862,854.738 599.729,854.011 599.729,854.011L377.952,852.151Z" style="fill:rgb(37,16,15);"/>
            </g>
            <g transform="matrix(1,0,0,0.935164,779.323,750.297)">
                <g transform="matrix(37.5,0,0,37.5,1226.65,599.37)">
                </g>
                <text x="938.003px" y="599.37px" style="font-family:'ComicSansMS', 'Comic Sans MS', cursive;font-size:37.5px;">feature/JIRA-5</text>
            </g>
            <g transform="matrix(0.396981,0,0,0.467582,1026.24,862.244)">
                <path d="M283.465,661.417L390.213,850.394" style="fill:none;"/>
                <path d="M279.427,662.855C278.427,661.086 279.425,659.005 281.654,658.211C283.882,657.418 286.503,658.21 287.503,659.979C287.503,659.979 361.178,780.534 387.368,828.708C393.756,840.458 396.949,847.995 396.949,847.995C398.616,850.947 396.952,854.418 393.234,855.742C389.516,857.066 385.144,855.744 383.477,852.792C383.477,852.792 378.511,845.886 371.708,834.284C343.816,786.716 279.427,662.855 279.427,662.855Z" style="fill:rgb(37,16,15);"/>
            </g>
            <g transform="matrix(0.5,0,0,0.467582,1730.45,863.195)">
                <path d="M554.929,850.394L661.417,661.417" style="fill:none;"/>
                <path d="M557.99,852.119C557.038,853.808 554.894,854.407 553.204,853.455C551.515,852.503 550.916,850.358 551.868,848.669C551.868,848.669 617.213,724.477 644.833,676.97C651.569,665.385 656.311,658.54 656.311,658.54C657.899,655.722 661.476,654.723 664.295,656.311C667.113,657.899 668.112,661.476 666.524,664.295C666.524,664.295 663.125,671.897 656.704,683.66C630.375,731.893 557.99,852.119 557.99,852.119Z" style="fill:rgb(37,16,15);"/>
            </g>
            <g transform="matrix(5.40075,0,0,0.935164,-1467.32,531.362)">
                <path d="M376.667,850.394L566.929,850.394" style="fill:none;"/>
                <path d="M376.667,851.83C376.52,851.83 376.401,851.187 376.401,850.394C376.401,849.601 376.52,848.957 376.667,848.957C376.667,848.957 499.717,846.661 547.903,846.987C559.635,847.066 566.929,847.463 566.929,847.463C567.229,847.463 567.472,848.776 567.472,850.394C567.472,852.011 567.229,853.324 566.929,853.324C566.929,853.324 559.635,853.721 547.903,853.801C499.717,854.126 376.667,851.83 376.667,851.83Z" style="fill:rgb(37,16,15);"/>
            </g>
            <g transform="matrix(1,0,0,0.935164,-283.445,750.297)">
                <g transform="matrix(37.5,0,0,37.5,1226.65,599.37)">
                </g>
                <text x="938.003px" y="599.37px" style="font-family:'ComicSansMS', 'Comic Sans MS', cursive;font-size:37.5px;">feature/JIRA-3</text>
            </g>
            <g transform="matrix(0.5,0,0,0.701373,377.995,708.086)">
                <path d="M283.465,661.417L377.953,881.89" style="fill:none;"/>
                <path d="M280.702,661.944C280.266,660.927 281.15,659.866 282.675,659.575C284.2,659.285 285.792,659.874 286.228,660.891C286.228,660.891 351.748,802.631 375.055,858.595C380.734,872.229 383.589,880.816 383.589,880.816C384.477,882.89 382.673,885.054 379.563,885.647C376.453,886.239 373.206,885.037 372.317,882.963C372.317,882.963 367.936,874.666 361.952,861.09C337.393,805.365 280.702,661.944 280.702,661.944Z" style="fill:rgb(37,16,15);"/>
            </g>
            <g transform="matrix(0.5,0,0,0.701373,1311.07,708.086)">
                <path d="M566.929,881.89L661.417,661.417" style="fill:none;"/>
                <path d="M569.692,882.416C569.256,883.433 567.665,884.022 566.14,883.732C564.615,883.441 563.73,882.38 564.166,881.363C564.166,881.363 620.857,737.942 645.417,682.217C651.4,668.641 655.782,660.344 655.782,660.344C656.67,658.27 659.917,657.068 663.028,657.66C666.138,658.253 667.942,660.417 667.053,662.491C667.053,662.491 664.198,671.078 658.52,684.712C635.213,740.677 569.692,882.416 569.692,882.416Z" style="fill:rgb(37,16,15);"/>
            </g>
            <g transform="matrix(1,0,0,0.935164,0.0418174,23.2811)">
                <g transform="matrix(1,-0,-0,1,68,-0.629043)">
                    <path d="M131.357,1203.02L120.976,1228.98L106.443,1205.1L119.938,1216.52L131.357,1203.02Z" style="fill:rgb(15,17,37);"/>
                    <path d="M73.732,662.046C73.732,662.046 113.009,1133.37 119.938,1216.52" style="fill:none;stroke:rgb(15,17,37);stroke-width:8.33px;stroke-dasharray:8.33,25,0,0;"/>
                </g>
            </g>
            <g transform="matrix(1,0,0,0.935164,425.239,24.7436)">
                <g transform="matrix(1,-0,-0,1,-357.197,-2.19298)">
                    <path d="M556.548,1203.02L546.173,1228.98L531.635,1205.1L545.132,1216.52L556.548,1203.02Z" style="fill:rgb(15,17,37);"/>
                    <path d="M498.929,663.61C498.929,663.61 538.195,1133.5 545.132,1216.52" style="fill:none;stroke:rgb(15,17,37);stroke-width:8.33px;stroke-dasharray:8.33,25,0,0;"/>
                </g>
            </g>
            <g transform="matrix(1,0,0,0.585689,1086.66,519.515)">
                <g transform="matrix(1,-0,-0,1.59669,-1018.61,-848.27)">
                    <path d="M1169.65,1202.62L1160.35,1228.98L1144.84,1205.72L1158.8,1216.57L1169.65,1202.62Z" style="fill:rgb(15,17,37);"/>
                    <path d="M1113.1,851.023C1113.1,851.023 1150.64,1151.35 1158.8,1216.57" style="fill:none;stroke:rgb(15,17,37);stroke-width:8.33px;stroke-dasharray:8.33,25,0,0;"/>
                </g>
            </g>
            <g transform="matrix(1,0,0,0.585689,1157.52,497.425)">
                <g transform="matrix(1,-0,-0,1.59669,-1089.48,-810.553)">
                    <path d="M1142.16,683.268L1160.35,662.046L1166.41,689.332L1157.32,674.173L1142.16,683.268Z" style="fill:rgb(15,17,37);"/>
                    <path d="M1113.1,851.023C1113.1,851.023 1146.88,715.903 1157.32,674.173" style="fill:none;stroke:rgb(15,17,37);stroke-width:8.33px;stroke-dasharray:8.33,25,0,0;"/>
                </g>
            </g>
            <g transform="matrix(1,0,0,0.935164,83.9571,56.4168)">
                <ellipse cx="1144.43" cy="625.984" rx="13.049" ry="11.811" style="fill:rgb(38,17,17);"/>
            </g>
            <g transform="matrix(1.5995,0,0,0.927511,-982.092,29.7888)">
                <path d="M1042.63,1123.25C1046.71,1096.94 1051.2,1067.87 1055.65,1038.79C1058.58,1019.6 1061.48,1000.4 1064.21,981.973C1074.97,909.514 1083.62,849.175 1083.62,849.175L1089.61,851.613C1089.61,851.613 1079.5,911.355 1067.68,983.381C1064.67,1001.7 1061.58,1020.82 1058.53,1039.95C1053.9,1068.96 1049.31,1097.99 1045.17,1124.28L1028.81,1228.85C1028.81,1228.85 1028.81,1228.85 1028.81,1228.85C1028.98,1227.74 1028.56,1226.61 1027.87,1226.33C1027.18,1226.05 1026.49,1226.72 1026.31,1227.83C1026.31,1227.84 1026.31,1227.84 1026.31,1227.84L1042.63,1123.25Z" style="fill:rgb(255,120,0);"/>
            </g>
            <g transform="matrix(0.1875,9.55338e-17,-5.44839e-16,0.935164,513.132,-595.855)">
                <path d="M8904.79,942.899C8904.9,939.847 8906.04,937.451 8907.43,937.456L8907.43,942.897L8907.47,942.897L8907.47,937.456C8907.47,937.456 9201.35,938.469 9620.46,939.5C9833.23,940.024 10078.2,940.603 10333.5,940.966C11326.1,942.38 12472.5,942.66 12472.5,942.66L12472.4,946.087C12472.4,946.087 11326,945.737 10333.4,946.605C10078.2,946.828 9833.18,947.272 9620.4,947.679C9201.27,948.481 8907.38,949.332 8907.42,949.332C8906.04,949.327 8904.9,946.933 8904.79,943.889C8888.51,943.867 8875.73,943.654 8875.76,943.393C8875.78,943.133 8888.55,942.92 8904.79,942.899Z" style="fill:rgb(255,120,0);"/>
            </g>
            <g transform="matrix(0.1875,9.55338e-17,-5.44839e-16,0.935164,543.349,-64.6052)">
                <path d="M6047.3,940.333C6047.3,940.333 6162.46,939.846 6319.43,939.798C6375.67,939.781 6437.27,939.804 6500.85,940.043C6666.04,940.664 6844.25,942.315 6977.03,942.981C7098.12,943.589 7181.12,943.771 7181.12,943.771L7181.09,945.993C7181.09,945.993 7098.09,946.1 6976.98,946.599C6844.19,947.147 6665.94,948.638 6500.73,949.111C6437.15,949.293 6375.55,949.261 6319.31,949.193C6162.34,949.004 6047.19,948.413 6047.19,948.413C6035.29,948.408 6025.67,946.595 6025.7,944.364C6025.73,942.132 6035.4,940.328 6047.3,940.333Z" style="fill:rgb(255,120,0);"/>
            </g>
            <g transform="matrix(0.1875,9.55338e-17,-5.44839e-16,0.935164,543.349,-64.6052)">
                <path d="M1133.83,940.335C1133.83,940.335 1585.82,939.424 2086.26,938.722C2299.54,938.423 2521.6,938.103 2721.22,938.017C2767.94,937.996 2813.43,937.935 2857.28,938.051C2904.74,938.175 2950.24,938.408 2993.35,938.733C3070.12,939.311 3138.9,940.035 3197.46,940.783C3324.55,942.407 3401.57,943.95 3401.57,943.95L3401.58,944.797C3401.58,944.797 3324.57,946.374 3197.5,948.055C3138.96,948.829 3070.18,949.585 2993.42,950.197C2950.32,950.541 2904.83,950.794 2857.36,950.94C2813.51,951.075 2768.02,951.034 2721.3,951.035C2521.68,951.039 2299.62,950.818 2086.34,950.614C1585.89,950.137 1133.89,949.429 1133.89,949.429C1120.5,949.432 1109.62,947.398 1109.61,944.887C1109.59,942.376 1120.44,940.338 1133.83,940.335Z" style="fill:rgb(255,120,0);"/>
            </g>
            <g transform="matrix(1,0,0,0.935164,637.837,23.7567)">
                <path d="M1002.83,1227.73C1002.83,1227.73 1006.33,1189.23 1010.69,1136.73C1016.08,1071.8 1022.33,985.447 1027.64,924.258C1031.51,879.687 1034.75,848.474 1034.75,848.474L1043.99,849.338C1043.99,849.338 1041.39,880.612 1036.93,925.126C1030.8,986.24 1020.93,1072.25 1014.2,1137.06C1008.75,1189.46 1005.04,1227.94 1005.04,1227.94C1004.99,1228.55 1004.44,1229 1003.83,1228.94C1003.22,1228.89 1002.77,1228.35 1002.83,1227.73Z" style="fill:rgb(255,120,0);"/>
            </g>
            <g transform="matrix(0.826782,0,0,-1.92663,1079.71,2279.7)">
                <path d="M1353.31,1037.93C1353.31,1037.93 1345,1029.23 1332.65,1015.47C1328.6,1010.95 1324.21,1005.88 1319.48,1000.41C1271.93,945.407 1190.58,849.436 1190.58,849.436L1183.96,850.334C1183.96,850.334 1264.4,946.429 1309.76,1001.73C1314.28,1007.23 1318.45,1012.33 1322.06,1016.9C1333.05,1030.85 1339.61,1039.79 1339.61,1039.79L1353.31,1037.93Z" style="fill:rgb(255,120,0);"/>
            </g>
            <g transform="matrix(1,0,0,0.585689,1867.76,519.991)">
                <g transform="matrix(1,-0,-0,1.59669,-1799.72,-849.082)">
                    <path d="M1901.03,1202.32L1892.63,1228.98L1876.34,1206.26L1890.66,1216.63L1901.03,1202.32Z" style="fill:rgb(15,17,37);"/>
                    <path d="M1832.34,851.531C1832.34,851.531 1880.27,1151.58 1890.66,1216.63" style="fill:none;stroke:rgb(15,17,37);stroke-width:8.33px;stroke-dasharray:8.33,25,0,0;"/>
                </g>
            </g>
            <g transform="matrix(0.307279,0,0,0.351413,1822.28,144.774)">
                <g transform="matrix(3.25437,-0,-0,2.66115,-5708.93,-347.401)">
                    <path d="M1754.52,822.329L1750.9,850.043L1730.9,830.513L1746.81,838.232L1754.52,822.329Z" style="fill:rgb(158,158,158);"/>
                    <path d="M1750.9,850.043L1685.94,662.555C1685.94,662.555 1732.55,797.088 1746.81,838.232" style="fill:none;stroke:rgb(158,158,158);stroke-width:8.33px;stroke-dasharray:8.33,25,0,0;"/>
                </g>
            </g>
            <g transform="matrix(2.03746,0,0,0.936472,1666.8,22.8914)">
                <g transform="matrix(0.490806,-0,-0,0.998603,-784.68,-0.212057)">
                    <path d="M1783.01,1202.34L1774.52,1228.98L1758.31,1206.21L1772.59,1216.63L1783.01,1202.34Z" style="fill:rgb(15,17,37);"/>
                    <path d="M1685.94,662.555C1685.94,662.555 1759.64,1133.81 1772.59,1216.63" style="fill:none;stroke:rgb(15,17,37);stroke-width:8.33px;stroke-dasharray:8.33,25,0,0;"/>
                </g>
            </g>
            <g transform="matrix(2.00701,0,0,0.878534,1867.26,425.706)">
                <g transform="matrix(0.498255,-0,-0,1.06446,-896.47,-458.734)">
                    <path d="M1967.52,673.382L1993.29,662.555L1986.49,689.666L1985.15,672.04L1967.52,673.382Z" style="fill:rgb(15,17,37);"/>
                    <path d="M1832.34,850.043C1832.34,850.043 1952.43,710.144 1985.15,672.04" style="fill:none;stroke:rgb(15,17,37);stroke-width:8.33px;stroke-dasharray:8.33,25,0,0;"/>
                </g>
            </g>
            <g transform="matrix(1,0,0,0.935164,916.898,56.8925)">
                <ellipse cx="1144.43" cy="625.984" rx="13.049" ry="11.811" style="fill:rgb(38,17,17);"/>
            </g>
            <g transform="matrix(1,0,0,0.935164,755.947,233.616)">
                <ellipse cx="1144.43" cy="625.984" rx="13.049" ry="11.811" style="fill:rgb(127,79,37);stroke:rgb(129,74,18);stroke-width:8.33px;"/>
            </g>
            <g transform="matrix(1,0,0,0.935164,36.713,233.141)">
                <ellipse cx="1144.43" cy="625.984" rx="13.049" ry="11.811" style="fill:rgb(127,79,37);stroke:rgb(129,74,18);stroke-width:8.33px;"/>
            </g>
            <g transform="matrix(0.546078,-0.783419,0.837734,0.510673,743.052,1044.65)">
                <g transform="matrix(37.5,0,0,37.5,1174.32,599.37)">
                </g>
                <text x="938.003px" y="599.37px" style="font-family:'ComicSansMS', 'Comic Sans MS', cursive;font-size:37.5px;">version/11.0.1</text>
            </g>
            <g transform="matrix(1,0,0,0.935164,609.548,56.8925)">
                <ellipse cx="1144.43" cy="625.984" rx="13.049" ry="11.811" style="fill:rgb(38,17,17);"/>
            </g>
            <g transform="matrix(1,0,0,0.935164,1301.25,324.301)">
                <g transform="matrix(37.5,0,0,37.5,997.054,599.37)">
                </g>
                <g transform="matrix(37.5,0,0,37.5,1012.98,599.37)">
                </g>
                <g transform="matrix(37.5,0,0,37.5,1198.01,599.37)">
                </g>
                <text x="938.003px" y="599.37px" style="font-family:'ComicSansMS', 'Comic Sans MS', cursive;font-size:37.5px;">hotﬁx/JIRA-7</text>
            </g>
            <g transform="matrix(-0.173526,-0.420941,0.431068,-0.091607,1954.53,695.156)">
                <path d="M73.629,284.482L558.153,917.252" style="fill:none;"/>
                <path d="M73.145,284.897C72.894,284.569 72.907,284.117 73.174,283.888C73.441,283.658 73.862,283.738 74.113,284.066C74.113,284.066 392.436,689.018 514.902,849.513C544.722,888.592 562.626,913.414 562.626,913.414C564.947,916.444 564.827,920.625 562.358,922.743C559.889,924.861 556.001,924.12 553.68,921.089C553.68,921.089 534.446,897.409 504.5,858.437C381.518,698.386 73.145,284.897 73.145,284.897Z" style="fill:rgb(37,16,15);"/>
            </g>
            <g transform="matrix(1.5,0,0,0.935164,1674.9,-418.412)">
                <path d="M382.635,850.394L566.929,850.394" style="fill:none;"/>
                <path d="M382.635,850.711C382.518,850.711 382.423,850.569 382.423,850.394C382.423,850.219 382.518,850.077 382.635,850.077C382.635,850.077 501.818,846.817 548.5,846.986C559.867,847.027 566.929,847.463 566.929,847.463C568.007,847.463 568.883,848.776 568.883,850.394C568.883,852.011 568.007,853.324 566.929,853.324C566.929,853.324 559.867,853.76 548.5,853.801C501.818,853.97 382.635,850.711 382.635,850.711Z" style="fill:rgb(37,16,15);"/>
            </g>
            <g transform="matrix(0.5,0,0,0.467582,2242.11,-23.3003)">
                <path d="M566.929,850.394L661.417,661.417" style="fill:none;"/>
                <path d="M567.497,850.677C567.34,850.991 566.959,851.118 566.645,850.961C566.332,850.804 566.205,850.423 566.362,850.11C566.362,850.11 621.616,725.026 645.873,677.267C651.785,665.628 656.175,658.796 656.175,658.796C657.622,655.903 661.145,654.728 664.039,656.175C666.932,657.622 668.107,661.145 666.66,664.039C666.66,664.039 663.829,671.65 658.064,683.363C634.411,731.424 567.497,850.677 567.497,850.677Z" style="fill:rgb(37,16,15);"/>
            </g>
            <g transform="matrix(1,0,0,0.935164,1315.92,56.8925)">
                <ellipse cx="1144.43" cy="625.984" rx="13.049" ry="11.811" style="fill:rgb(38,17,17);"/>
            </g>
            <g transform="matrix(1,0,0,0.935164,1976.64,446.123)">
                <g transform="matrix(41.6667,0,0,41.6667,1180.84,599.37)">
                </g>
                <text x="938.003px" y="599.37px" style="font-family:'ComicSansMS', 'Comic Sans MS', cursive;font-size:41.667px;">release/12.0</text>
            </g>
            <g transform="matrix(1,0,0,0.935164,1063.03,15.6123)">
                <path d="M1049.64,1236.33L1080.48,1052.1L1086.61,1053.3C1086.61,1053.3 1078.38,1094.7 1070,1138.18C1078.64,1094.75 1086.61,1053.3 1086.61,1053.3L1092.75,1054.5L1051.87,1236.77C1051.75,1237.38 1051.15,1237.78 1050.54,1237.66C1049.92,1237.54 1049.52,1236.94 1049.64,1236.33Z" style="fill:rgb(255,120,0);"/>
            </g>
            <g transform="matrix(0.553147,-0.779069,0.833083,0.517283,1434.73,1041.08)">
                <g transform="matrix(37.5,0,0,37.5,1186.33,599.37)">
                </g>
                <text x="938.003px" y="599.37px" style="font-family:'ComicSansMS', 'Comic Sans MS', cursive;font-size:37.5px;">version/12.0.0</text>
            </g>
            <g transform="matrix(1,0,0,0.585689,2355.91,512.322)">
                <g transform="matrix(1,-0,-0,1.59669,-2287.87,-835.989)">
                    <path d="M2397.87,1202.58L2388.69,1228.98L2373.08,1205.79L2387.09,1216.58L2397.87,1202.58Z" style="fill:rgb(15,17,37);"/>
                    <path d="M2365.83,1052.67C2365.83,1052.67 2381.88,1176.45 2387.09,1216.58" style="fill:none;stroke:rgb(15,17,37);stroke-width:8.33px;stroke-dasharray:8.33,25,0,0;"/>
                </g>
            </g>
            <g transform="matrix(2.00701,0,0,0.878534,2355.41,418.037)">
                <g transform="matrix(0.498255,-0,-0,1.06446,-1139.69,-450.005)">
                    <path d="M2378.07,686.1L2392.31,662.046L2403.01,687.867L2391.42,674.515L2378.07,686.1Z" style="fill:rgb(15,17,37);"/>
                    <path d="M2365.07,1046.37C2365.07,1046.37 2386.74,740.542 2391.42,674.515" style="fill:none;stroke:rgb(15,17,37);stroke-width:8.33px;stroke-dasharray:8.33,25,0,0;"/>
                </g>
            </g>
            <g transform="matrix(0.109375,0,0,0.935164,2025.15,28.3735)">
                <path d="M3736.92,1035.86C3757.49,1035.86 3774.13,1037.69 3774.09,1039.94C3774.06,1042.19 3757.35,1044.01 3736.78,1044.01C3736.78,1044.01 1197.22,1045.21 1197.35,1045.21L1133.86,1045.25L1133.88,1041.58C1133.79,1041.58 1133.75,1041.58 1133.75,1041.58C1104.07,1041.58 1080.05,1040.59 1080.08,1039.37C1080.11,1038.15 1104.18,1037.16 1133.86,1037.16L1133.86,1033.49L1197.35,1033.53L1197.48,1033.53L3736.92,1035.86Z" style="fill:rgb(255,120,0);"/>
            </g>
            <g transform="matrix(0.541928,-0.785935,0.840425,0.506791,1029.55,704.592)">
                <g transform="matrix(37.5,0,0,37.5,1174.32,599.37)">
                </g>
                <text x="938.003px" y="599.37px" style="font-family:'ComicSansMS', 'Comic Sans MS', cursive;font-size:37.5px;">version/11.1.0</text>
            </g>
            <g transform="matrix(1,0,0,0.935164,68.0418,22.6928)">
                <path d="M1988.62,663.088L1986.97,295.48" style="fill:none;stroke:rgb(19,17,17);stroke-width:4.17px;"/>
            </g>
            <g transform="matrix(0.568432,-0.769387,0.82273,0.531577,1608.05,668.2)">
                <g transform="matrix(37.5,0,0,37.5,1168.31,599.37)">
                </g>
                <text x="938.003px" y="599.37px" style="font-family:'ComicSansMS', 'Comic Sans MS', cursive;font-size:37.5px;">version/11.1.1</text>
            </g>
            <g transform="matrix(1,0,0,0.935164,1483.3,-299.058)">
                <ellipse cx="1144.43" cy="625.984" rx="13.049" ry="11.811" style="fill:rgb(38,17,17);"/>
            </g>
            <g transform="matrix(1,0,0,0.935164,1289.44,415.817)">
                <ellipse cx="1144.43" cy="625.984" rx="13.049" ry="11.811" style="fill:rgb(127,79,37);stroke:rgb(129,74,18);stroke-width:8.33px;"/>
            </g>
            <g transform="matrix(1,0,0,0.935164,972.597,316.794)">
                <g transform="matrix(41.6667,0,0,41.6667,1167.49,599.37)">
                </g>
                <text x="938.003px" y="599.37px" style="font-family:'ComicSansMS', 'Comic Sans MS', cursive;font-size:41.667px;">release/11.1</text>
            </g>
            <g transform="matrix(1,0,0,0.935164,68.0418,22.6928)">
                <path d="M2367.98,1046.32L2827.55,1043.27" style="fill:none;stroke:rgb(19,17,17);stroke-width:4.17px;"/>
            </g>
        </g>
    </g>
</svg>
