<?xml version="1.0" encoding="UTF-8" standalone="no"?>
<!DOCTYPE svg PUBLIC "-//W3C//DTD SVG 1.1//EN" "http://www.w3.org/Graphics/SVG/1.1/DTD/svg11.dtd">
<svg width="100%" height="100%" viewBox="0 0 3243 1114" version="1.1" xmlns="http://www.w3.org/2000/svg" xmlns:xlink="http://www.w3.org/1999/xlink" xml:space="preserve" xmlns:serif="http://www.serif.com/" style="fill-rule:evenodd;clip-rule:evenodd;stroke-linecap:round;stroke-linejoin:round;stroke-miterlimit:1.5;">
    <g transform="matrix(1,0,0,1,-59,-333)">
        <g transform="matrix(1.05,0,0,1,-153.543,-22.7032)">
            <path d="M236.22,687.028C236.22,687.028 2069.49,690.424 2787.4,691.315C2887.17,691.439 2965.4,691.611 3014.17,691.497C3016.67,691.491 3019.09,691.556 3021.43,691.457C3033.15,690.966 3042.79,689.779 3050.46,689.176C3051.56,689.09 3052.66,689.24 3053.63,688.927C3055.04,688.476 3055.52,687.386 3056.81,687.028C3057.73,686.772 3058.67,687.028 3059.53,687.028L3070.87,687.028C3072.39,687.028 3073.64,685.725 3073.64,684.12C3073.64,682.516 3072.39,681.213 3070.87,681.213L3059.53,681.213C3058.67,681.213 3057.73,681.469 3056.81,681.213C3055.52,680.855 3055.04,679.765 3053.63,679.314C3052.66,679.001 3051.56,679.151 3050.46,679.065C3042.79,678.462 3033.15,677.275 3021.43,676.784C3019.09,676.685 3016.67,676.75 3014.17,676.744C2965.4,676.63 2887.17,676.802 2787.4,676.926C2069.49,677.817 236.22,681.213 236.22,681.213C234.692,681.213 233.451,682.516 233.451,684.12C233.451,685.725 234.692,687.028 236.22,687.028Z" style="fill:rgb(255,14,0);"/>
        </g>
        <g transform="matrix(1.05,0,0,1,-153.543,544.226)">
            <path d="M236.22,687.023C236.22,687.023 1063.06,689.778 1823.62,691.579C1963.8,691.91 2101.73,692.213 2231.81,692.34C2327.51,692.433 2418.96,692.628 2503.94,692.365C2609.94,692.035 2705.86,691.347 2787.4,690.579C2962.21,688.932 3070.87,687.023 3070.87,687.023C3072.39,687.023 3073.63,685.722 3073.63,684.12C3073.63,682.518 3072.39,681.218 3070.87,681.218C3070.87,681.218 2962.21,679.309 2787.4,677.662C2705.86,676.894 2609.94,676.205 2503.94,675.876C2418.96,675.613 2327.51,675.808 2231.81,675.901C2101.73,676.028 1963.8,676.331 1823.62,676.662C1063.06,678.463 236.22,681.218 236.22,681.218C234.695,681.218 233.456,682.518 233.456,684.12C233.456,685.722 234.695,687.023 236.22,687.023Z" style="fill:rgb(0,45,255);"/>
        </g>
        <g transform="matrix(1,0,0,1,2153.19,73.4105)">
            <text x="938.003px" y="599.37px" style="font-family:'ComicSansMS-Bold', 'Comic Sans MS', cursive;font-weight:700;font-size:41.667px;">master</text>
        </g>
        <g transform="matrix(1,0,0,1,256.658,313.862)">
            <text x="938.003px" y="599.37px" style="font-family:'ComicSansMS', 'Comic Sans MS', cursive;font-size:41.667px;">release/7.11.0</text>
        </g>
        <g transform="matrix(1,0,0,1,1974.97,264.957)">
            <text x="938.003px" y="599.37px" style="font-family:'ComicSansMS-Bold', 'Comic Sans MS', cursive;font-weight:700;font-size:41.667px;">release/7.11</text>
        </g>
        <g transform="matrix(1,0,0,1,1932.02,319.271)">
            <text x="938.003px" y="599.37px" style="font-family:'ComicSansMS', 'Comic Sans MS', cursive;font-size:37.5px;">Branch for further</text>
            <text x="938.003px" y="636.87px" style="font-family:'ComicSansMS', 'Comic Sans MS', cursive;font-size:37.5px;">maintenance of 7.11</text>
        </g>
        <g transform="matrix(1,0,0,1,2153.19,640.34)">
            <text x="938.003px" y="599.37px" style="font-family:'ComicSansMS-Bold', 'Comic Sans MS', cursive;font-weight:700;font-size:41.667px;">develop</text>
        </g>
        <g transform="matrix(1,0,0,1,-716.248,129.984)">
            <text x="938.003px" y="599.37px" style="font-family:'ComicSansMS', 'Comic Sans MS', cursive;font-size:37.5px;">hotﬁx/JIRA-1</text>
        </g>
        <g transform="matrix(1.85159,0,0,1,-435.545,472.441)">
            <path d="M375.454,849.885L566.929,850.394" style="fill:none;"/>
            <path d="M375.453,851.321C375.453,851.321 499.284,853.946 547.779,853.75C559.588,853.702 566.927,853.324 566.927,853.324C567.8,853.327 568.511,852.015 568.512,850.398C568.513,848.78 567.805,847.465 566.931,847.463C566.931,847.463 559.593,847.047 547.784,846.936C499.29,846.482 375.455,848.449 375.455,848.449C375.027,848.448 374.679,849.091 374.679,849.883C374.678,850.675 375.025,851.32 375.453,851.321Z" style="fill:rgb(37,16,15);"/>
        </g>
        <g transform="matrix(1,0,0,1,-90.3556,321.381)">
            <text x="938.003px" y="599.37px" style="font-family:'ComicSansMS', 'Comic Sans MS', cursive;font-size:37.5px;">hotﬁx/JIRA-4</text>
        </g>
        <g transform="matrix(0.545939,-0.837825,0.837825,0.545939,211.819,1090.82)">
            <text x="938.003px" y="599.37px" style="font-family:'ComicSansMS', 'Comic Sans MS', cursive;font-size:37.5px;">version/7.11.0.0</text>
        </g>
        <g transform="matrix(0.5,0,0,0.5,637.795,519.685)">
            <path d="M283.465,661.417L377.953,850.394" style="fill:none;"/>
            <path d="M282.897,661.701C282.897,661.701 338.151,786.785 362.408,834.544C368.32,846.183 372.71,853.015 372.71,853.015C374.157,855.908 377.681,857.083 380.574,855.636C383.467,854.189 384.642,850.666 383.195,847.772C383.195,847.772 380.364,840.161 374.6,828.448C350.947,780.387 284.032,661.134 284.032,661.134C283.875,660.82 283.494,660.693 283.181,660.85C282.868,661.007 282.741,661.388 282.897,661.701Z" style="fill:rgb(37,16,15);"/>
        </g>
        <g transform="matrix(1.5,0,0,1,259.843,94.4882)">
            <path d="M377.953,850.394L566.929,850.394" style="fill:none;"/>
            <path d="M377.953,850.711C377.953,850.711 500.164,853.97 548.032,853.801C559.688,853.76 566.929,853.324 566.929,853.324C568.007,853.324 568.883,852.011 568.883,850.394C568.883,848.776 568.007,847.463 566.929,847.463C566.929,847.463 559.688,847.027 548.032,846.986C500.164,846.817 377.953,850.077 377.953,850.077C377.836,850.077 377.741,850.219 377.741,850.394C377.741,850.569 377.836,850.711 377.953,850.711Z" style="fill:rgb(37,16,15);"/>
        </g>
        <g transform="matrix(0.5,0,0,0.5,826.772,519.685)">
            <path d="M566.929,850.394L661.417,661.417" style="fill:none;"/>
            <path d="M567.497,850.677C567.497,850.677 634.411,731.424 658.064,683.363C663.829,671.65 666.66,664.039 666.66,664.039C668.107,661.145 666.932,657.622 664.039,656.175C661.145,654.728 657.622,655.903 656.175,658.796C656.175,658.796 651.785,665.628 645.873,677.267C621.616,725.026 566.362,850.11 566.362,850.11C566.205,850.423 566.332,850.804 566.645,850.961C566.959,851.118 567.34,850.991 567.497,850.677Z" style="fill:rgb(37,16,15);"/>
        </g>
        <g transform="matrix(0.5,0,0,0.5,23.622,330.709)">
            <path d="M283.465,661.417L377.953,850.394" style="fill:none;"/>
            <path d="M282.897,661.701C282.897,661.701 338.151,786.785 362.408,834.544C368.32,846.183 372.71,853.015 372.71,853.015C374.157,855.908 377.681,857.083 380.574,855.636C383.467,854.189 384.642,850.666 383.195,847.772C383.195,847.772 380.364,840.161 374.6,828.448C350.947,780.387 284.032,661.134 284.032,661.134C283.875,660.82 283.494,660.693 283.181,660.85C282.868,661.007 282.741,661.388 282.897,661.701Z" style="fill:rgb(37,16,15);"/>
        </g>
        <g transform="matrix(1.5,0,0,1,-354.331,-94.4882)">
            <path d="M377.953,850.394L566.929,850.394" style="fill:none;"/>
            <path d="M377.953,850.711C377.953,850.711 500.164,853.97 548.032,853.801C559.688,853.76 566.929,853.324 566.929,853.324C568.007,853.324 568.883,852.011 568.883,850.394C568.883,848.776 568.007,847.463 566.929,847.463C566.929,847.463 559.688,847.027 548.032,846.986C500.164,846.817 377.953,850.077 377.953,850.077C377.836,850.077 377.741,850.219 377.741,850.394C377.741,850.569 377.836,850.711 377.953,850.711Z" style="fill:rgb(37,16,15);"/>
        </g>
        <g transform="matrix(0.5,0,0,0.5,212.598,330.709)">
            <path d="M566.929,850.394L661.417,661.417" style="fill:none;"/>
            <path d="M567.497,850.677C567.497,850.677 634.411,731.424 658.064,683.363C663.829,671.65 666.66,664.039 666.66,664.039C668.107,661.145 666.932,657.622 664.039,656.175C661.145,654.728 657.622,655.903 656.175,658.796C656.175,658.796 651.785,665.628 645.873,677.267C621.616,725.026 566.362,850.11 566.362,850.11C566.205,850.423 566.332,850.804 566.645,850.961C566.959,851.118 567.34,850.991 567.497,850.677Z" style="fill:rgb(37,16,15);"/>
        </g>
        <g transform="matrix(1,0,0,1,447.091,132.913)">
            <text x="938.003px" y="599.37px" style="font-family:'ComicSansMS', 'Comic Sans MS', cursive;font-size:37.5px;">hotﬁx/JIRA-6</text>
        </g>
        <g transform="matrix(0.5,0,0,0.5,1133.86,330.709)">
            <path d="M283.465,661.417L377.953,850.394" style="fill:none;"/>
            <path d="M282.897,661.701C282.897,661.701 338.151,786.785 362.408,834.544C368.32,846.183 372.71,853.015 372.71,853.015C374.157,855.908 377.681,857.083 380.574,855.636C383.467,854.189 384.642,850.666 383.195,847.772C383.195,847.772 380.364,840.161 374.6,828.448C350.947,780.387 284.032,661.134 284.032,661.134C283.875,660.82 283.494,660.693 283.181,660.85C282.868,661.007 282.741,661.388 282.897,661.701Z" style="fill:rgb(37,16,15);"/>
        </g>
        <g transform="matrix(2.03125,0,0,1,555.118,-94.4882)">
            <path d="M377.953,850.394L566.929,850.394" style="fill:none;"/>
            <path d="M377.953,850.711C377.953,850.711 500.167,853.97 548.032,853.801C559.686,853.76 566.929,853.324 566.929,853.324C567.725,853.324 568.372,852.011 568.372,850.394C568.372,848.776 567.725,847.463 566.929,847.463C566.929,847.463 559.686,847.027 548.032,846.986C500.167,846.817 377.953,850.077 377.953,850.077C377.867,850.077 377.797,850.219 377.797,850.394C377.797,850.569 377.867,850.711 377.953,850.711Z" style="fill:rgb(37,16,15);"/>
        </g>
        <g transform="matrix(0.5,0,0,0.5,1423.23,330.709)">
            <path d="M566.929,850.394L661.417,661.417" style="fill:none;"/>
            <path d="M567.497,850.677C567.497,850.677 634.411,731.424 658.064,683.363C663.829,671.65 666.66,664.039 666.66,664.039C668.107,661.145 666.932,657.622 664.039,656.175C661.145,654.728 657.622,655.903 656.175,658.796C656.175,658.796 651.785,665.628 645.873,677.267C621.616,725.026 566.362,850.11 566.362,850.11C566.205,850.423 566.332,850.804 566.645,850.961C566.959,851.118 567.34,850.991 567.497,850.677Z" style="fill:rgb(37,16,15);"/>
        </g>
        <g transform="matrix(1,0,0,1,-678.547,777.421)">
            <text x="938.003px" y="599.37px" style="font-family:'ComicSansMS', 'Comic Sans MS', cursive;font-size:37.5px;">feature/JIRA-2</text>
        </g>
        <g transform="matrix(0.396981,0,0,0.5,109.803,897.638)">
            <path d="M283.465,661.417L377.953,850.394" style="fill:none;"/>
            <path d="M280.103,662.477C280.103,662.477 335.826,786.371 360.528,834.01C366.552,845.629 371.091,852.556 371.091,852.556C372.595,855.563 376.89,857.035 380.677,855.841C384.464,854.648 386.318,851.238 384.814,848.231C384.814,848.231 382.133,840.718 376.48,828.982C353.303,780.863 286.826,660.358 286.826,660.358C286.089,658.885 283.985,658.164 282.13,658.749C280.275,659.333 279.367,661.004 280.103,662.477Z" style="fill:rgb(37,16,15);"/>
        </g>
        <g transform="matrix(0.5,0,0,0.5,330.709,897.638)">
            <path d="M566.929,850.394L661.417,661.417" style="fill:none;"/>
            <path d="M569.497,851.678C569.497,851.678 634.706,731.531 658.063,683.362C663.759,671.616 666.66,664.039 666.66,664.039C668.107,661.145 666.932,657.622 664.039,656.175C661.145,654.728 657.622,655.903 656.175,658.796C656.175,658.796 651.854,665.663 645.874,677.268C621.353,724.854 564.361,849.11 564.361,849.11C563.652,850.527 564.228,852.253 565.645,852.962C567.062,853.67 568.789,853.095 569.497,851.678Z" style="fill:rgb(37,16,15);"/>
        </g>
        <g transform="matrix(2.34327,0,0,1,295.458,471.932)">
            <path d="M377.953,850.394L730.781,851.411" style="fill:rgb(38,17,17);"/>
            <path d="M377.952,852.151L599.729,854.011C599.729,854.011 652.862,854.738 691.464,854.705C713.487,854.687 730.78,854.342 730.78,854.342C731.47,854.344 732.031,853.032 732.032,851.415C732.033,849.797 731.473,848.482 730.783,848.48C730.783,848.48 713.491,848.035 691.468,847.89C652.866,847.635 599.732,848.056 599.732,848.056C599.732,848.056 377.954,848.637 377.954,848.637C377.54,848.636 377.204,849.422 377.203,850.392C377.203,851.361 377.538,852.149 377.952,852.151Z" style="fill:rgb(37,16,15);"/>
        </g>
        <g transform="matrix(1,0,0,1,779.282,777.421)">
            <text x="938.003px" y="599.37px" style="font-family:'ComicSansMS', 'Comic Sans MS', cursive;font-size:37.5px;">feature/JIRA-5</text>
        </g>
        <g transform="matrix(0.396981,0,0,0.5,1026.2,897.129)">
            <path d="M283.465,661.417L390.213,850.394" style="fill:none;"/>
            <path d="M279.427,662.855C279.427,662.855 343.816,786.716 371.708,834.284C378.511,845.886 383.477,852.792 383.477,852.792C385.144,855.744 389.516,857.066 393.234,855.742C396.952,854.418 398.616,850.947 396.949,847.995C396.949,847.995 393.756,840.458 387.368,828.708C361.178,780.534 287.503,659.979 287.503,659.979C286.503,658.21 283.882,657.418 281.654,658.211C279.425,659.005 278.427,661.086 279.427,662.855Z" style="fill:rgb(37,16,15);"/>
        </g>
        <g transform="matrix(0.5,0,0,0.5,1730.41,898.146)">
            <path d="M554.929,850.394L661.417,661.417" style="fill:none;"/>
            <path d="M557.99,852.119C557.99,852.119 630.375,731.893 656.704,683.66C663.125,671.897 666.524,664.295 666.524,664.295C668.112,661.476 667.113,657.899 664.295,656.311C661.476,654.723 657.899,655.722 656.311,658.54C656.311,658.54 651.569,665.385 644.833,676.97C617.213,724.477 551.868,848.669 551.868,848.669C550.916,850.358 551.515,852.503 553.204,853.455C554.894,854.407 557.038,853.808 557.99,852.119Z" style="fill:rgb(37,16,15);"/>
        </g>
        <g transform="matrix(5.40075,0,0,1,-1467.36,543.307)">
            <path d="M376.667,850.394L566.929,850.394" style="fill:none;"/>
            <path d="M376.667,851.83C376.667,851.83 499.717,854.126 547.903,853.801C559.635,853.721 566.929,853.324 566.929,853.324C567.229,853.324 567.472,852.011 567.472,850.394C567.472,848.776 567.229,847.463 566.929,847.463C566.929,847.463 559.635,847.066 547.903,846.987C499.717,846.661 376.667,848.957 376.667,848.957C376.52,848.957 376.401,849.601 376.401,850.394C376.401,851.187 376.52,851.83 376.667,851.83Z" style="fill:rgb(37,16,15);"/>
        </g>
        <g transform="matrix(1,0,0,1,-283.487,777.421)">
            <text x="938.003px" y="599.37px" style="font-family:'ComicSansMS', 'Comic Sans MS', cursive;font-size:37.5px;">feature/JIRA-3</text>
        </g>
        <g transform="matrix(0.5,0,0,0.75,377.953,732.283)">
            <path d="M283.465,661.417L377.953,881.89" style="fill:none;"/>
            <path d="M280.702,661.944C280.702,661.944 337.393,805.365 361.952,861.09C367.936,874.666 372.317,882.963 372.317,882.963C373.206,885.037 376.453,886.239 379.563,885.647C382.673,885.054 384.477,882.89 383.589,880.816C383.589,880.816 380.734,872.229 375.055,858.595C351.748,802.631 286.228,660.891 286.228,660.891C285.792,659.874 284.2,659.285 282.675,659.575C281.15,659.866 280.266,660.927 280.702,661.944Z" style="fill:rgb(37,16,15);"/>
        </g>
        <g transform="matrix(0.5,0,0,0.75,1311.02,732.283)">
            <path d="M566.929,881.89L661.417,661.417" style="fill:none;"/>
            <path d="M569.692,882.416C569.692,882.416 635.213,740.677 658.52,684.712C664.198,671.078 667.053,662.491 667.053,662.491C667.942,660.417 666.138,658.253 663.028,657.66C659.917,657.068 656.67,658.27 655.782,660.344C655.782,660.344 651.4,668.641 645.417,682.217C620.857,737.942 564.166,881.363 564.166,881.363C563.73,882.38 564.615,883.441 566.14,883.732C567.665,884.022 569.256,883.433 569.692,882.416Z" style="fill:rgb(37,16,15);"/>
        </g>
        <g transform="matrix(1,-0,-0,1,59,333)">
            <path d="M140.357,869.395L129.976,895.346L115.443,871.471L128.938,882.89L140.357,869.395Z" style="fill:rgb(15,17,37);"/>
            <path d="M82.732,328.417C82.732,328.417 122.009,799.735 128.938,882.89" style="fill:none;stroke:rgb(15,17,37);stroke-width:8.33px;stroke-dasharray:8.33,25,0,0;"/>
        </g>
        <g transform="matrix(1,0,0,1,425.197,1.56394)">
            <g transform="matrix(1,-0,-0,1,-366.197,331.436)">
                <path d="M565.548,869.392L555.173,895.346L540.635,871.474L554.132,882.89L565.548,869.392Z" style="fill:rgb(15,17,37);"/>
                <path d="M507.929,329.981C507.929,329.981 547.195,799.87 554.132,882.89" style="fill:none;stroke:rgb(15,17,37);stroke-width:8.33px;stroke-dasharray:8.33,25,0,0;"/>
            </g>
        </g>
        <g transform="matrix(1,0,0,0.626296,1086.61,530.639)">
            <g transform="matrix(1,-0,-0,1.59669,-1027.61,-315.568)">
                <path d="M1178.65,868.989L1169.35,895.346L1153.84,872.09L1167.8,882.943L1178.65,868.989Z" style="fill:rgb(15,17,37);"/>
                <path d="M1122.1,517.394C1122.1,517.394 1159.64,817.716 1167.8,882.943" style="fill:none;stroke:rgb(15,17,37);stroke-width:8.33px;stroke-dasharray:8.33,25,0,0;"/>
            </g>
        </g>
        <g transform="matrix(1,0,0,0.626296,1157.48,507.017)">
            <g transform="matrix(1,-0,-0,1.59669,-1098.48,-277.851)">
                <path d="M1151.16,349.639L1169.35,328.417L1175.41,355.703L1166.32,340.544L1151.16,349.639Z" style="fill:rgb(15,17,37);"/>
                <path d="M1122.1,517.394C1122.1,517.394 1155.88,382.274 1166.32,340.544" style="fill:none;stroke:rgb(15,17,37);stroke-width:8.33px;stroke-dasharray:8.33,25,0,0;"/>
            </g>
        </g>
        <g transform="matrix(1,0,0,1,83.9152,35.4331)">
            <ellipse cx="1144.43" cy="625.984" rx="13.049" ry="11.811" style="fill:rgb(38,17,17);"/>
        </g>
        <g transform="matrix(1,0,0,1,-330.709,-2.27374e-13)">
            <path d="M1041.43,1126L1025.52,1228.03L1025.5,1228.24L1025.5,1228.44L1025.52,1228.65L1025.56,1228.85L1025.62,1229.04L1025.69,1229.22L1025.79,1229.4L1025.89,1229.56L1026.02,1229.71L1026.16,1229.86L1026.31,1229.99L1026.47,1230.1L1026.65,1230.2L1026.84,1230.28L1027.03,1230.34L1027.24,1230.38L1027.45,1230.4L1027.66,1230.4L1027.86,1230.39L1028.06,1230.35L1028.25,1230.29L1028.43,1230.21L1028.61,1230.12L1028.77,1230.01C1028.83,1229.97 1028.88,1229.93 1028.93,1229.89L1029.07,1229.75L1029.2,1229.6L1029.31,1229.43L1029.41,1229.26L1029.49,1229.07L1029.55,1228.87L1029.6,1228.66L1045.56,1126.65C1049.82,1099.68 1054.6,1069.7 1059.43,1039.74C1062.52,1020.59 1065.68,1001.46 1068.77,983.118C1080.92,911.011 1091.5,851.157 1091.5,851.157L1081.73,849.63C1081.73,849.63 1073.54,909.858 1063.12,982.236C1060.47,1000.64 1057.64,1019.83 1054.74,1039C1050.21,1069.02 1045.61,1099.02 1041.43,1126Z" style="fill:rgb(255,120,0);"/>
        </g>
        <g transform="matrix(0.1875,1.02157e-16,-5.44839e-16,1,543.307,-93.9796)">
            <path d="M9301.09,944.373L12472.4,944.373L9301.09,944.373Z" style="fill:rgb(37,127,39);"/>
            <path d="M9301.09,938.435L9301.09,950.311C9301.09,950.311 9562.51,949.379 9935.36,948.462C10124.6,947.997 10342.6,947.486 10569.6,947.192C11452.6,946.052 12472.4,946.087 12472.4,946.087L12472.4,942.66C12472.4,942.66 11452.6,942.695 10569.6,941.554C10342.6,941.261 10124.6,940.749 9935.36,940.284C9562.51,939.367 9301.09,938.435 9301.09,938.435Z" style="fill:rgb(67,181,71);"/>
        </g>
        <g transform="matrix(0.1875,1.02157e-16,-5.44839e-16,1,543.307,-93.9796)">
            <path d="M6047.3,940.333L6047.19,948.413C6047.19,948.413 6162.34,949.004 6319.31,949.193C6375.55,949.261 6437.15,949.293 6500.73,949.111C6665.94,948.638 6844.19,947.147 6976.98,946.599C7098.09,946.1 7181.09,945.993 7181.09,945.993L7181.12,943.771C7181.12,943.771 7098.12,943.589 6977.03,942.981C6844.25,942.315 6666.04,940.664 6500.85,940.043C6437.27,939.804 6375.67,939.781 6319.43,939.798C6162.46,939.846 6047.3,940.333 6047.3,940.333Z" style="fill:rgb(255,120,0);"/>
        </g>
        <g transform="matrix(0.1875,1.02157e-16,-5.44839e-16,1,543.307,-93.9796)">
            <path d="M1133.83,940.335L1132.58,940.341L1131.35,940.359L1130.14,940.388L1128.94,940.429L1127.77,940.48L1126.62,940.541L1125.49,940.613L1124.39,940.695L1122.27,940.886L1120.28,941.115L1118.41,941.377L1116.69,941.671L1115.13,941.994L1113.73,942.344L1112.52,942.719L1111.5,943.117L1111.07,943.324L1110.69,943.535L1110.37,943.751L1110.1,943.971L1109.88,944.195L1109.73,944.422L1109.64,944.653L1109.61,944.887L1109.64,945.121L1109.74,945.352L1109.89,945.58L1110.11,945.804L1110.38,946.023L1110.71,946.239L1111.09,946.45L1111.53,946.657L1112.55,947.054L1113.77,947.429L1115.16,947.778L1116.73,948.101L1118.46,948.394L1120.32,948.655L1122.33,948.882L1124.45,949.073L1125.55,949.155L1126.67,949.226L1127.83,949.287L1129,949.337L1130.19,949.377L1131.41,949.406L1132.64,949.423L1133.89,949.429C1133.89,949.429 1585.89,950.137 2086.34,950.614C2299.62,950.818 2521.68,951.039 2721.3,951.035C2768.02,951.034 2813.51,951.075 2857.36,950.94C2904.83,950.794 2950.32,950.541 2993.42,950.197C3070.18,949.585 3138.96,948.829 3197.5,948.055C3324.57,946.374 3401.58,944.797 3401.58,944.797C3401.58,944.797 3401.57,943.95 3401.57,943.95C3401.57,943.95 3324.55,942.407 3197.46,940.783C3138.9,940.035 3070.12,939.311 2993.35,938.733C2950.24,938.408 2904.74,938.175 2857.28,938.051C2813.43,937.935 2767.94,937.996 2721.22,938.017C2521.6,938.103 2299.54,938.423 2086.26,938.722C1585.82,939.424 1133.83,940.335 1133.83,940.335Z" style="fill:rgb(255,120,0);"/>
        </g>
        <g transform="matrix(1,0,0,1,637.795,0.508626)">
            <path d="M1034.75,848.474C1034.75,848.474 1031.51,879.687 1027.64,924.258C1022.33,985.447 1016.08,1071.8 1010.69,1136.73C1006.33,1189.23 1002.83,1227.73 1002.83,1227.73L1002.83,1227.85L1002.83,1227.96L1002.85,1228.07L1002.88,1228.17L1002.96,1228.37L1003.08,1228.55L1003.23,1228.7L1003.41,1228.82L1003.51,1228.86L1003.61,1228.9L1003.72,1228.93L1003.83,1228.94L1003.95,1228.95L1004.06,1228.94L1004.17,1228.92L1004.27,1228.9L1004.47,1228.81L1004.65,1228.69L1004.8,1228.54L1004.92,1228.36L1004.96,1228.27L1005,1228.16L1005.03,1228.05L1005.04,1227.94C1005.04,1227.94 1008.75,1189.46 1014.2,1137.06C1020.93,1072.25 1030.8,986.24 1036.93,925.126C1041.39,880.612 1043.99,849.338 1043.99,849.338L1034.75,848.474Z" style="fill:rgb(255,120,0);"/>
        </g>
        <g transform="matrix(1,0,0,1,874.016,-187.959)">
            <path d="M1413.25,1038.35L1299.21,849.885L1413.25,1038.35Z" style="fill:rgb(37,127,39);"/>
            <path d="M1301.68,848.389C1301.68,848.389 1296.74,851.381 1296.74,851.381C1296.74,851.381 1354.35,947.363 1386.81,1002.85C1390.05,1008.38 1393.03,1013.5 1395.61,1018.13C1403.47,1032.27 1408.13,1041.45 1408.13,1041.45L1418.36,1035.26C1418.36,1035.26 1412.4,1026.87 1403.52,1013.34C1400.61,1008.91 1397.46,1003.89 1394.07,998.466C1359.97,943.96 1301.68,848.389 1301.68,848.389Z" style="fill:rgb(67,181,71);"/>
        </g>
        <g transform="matrix(1,0,0,0.626296,1867.72,531.148)">
            <g transform="matrix(1,-0,-0,1.59669,-1808.72,-316.38)">
                <path d="M1910.03,868.688L1901.63,895.346L1885.34,872.631L1899.66,883.003L1910.03,868.688Z" style="fill:rgb(15,17,37);"/>
                <path d="M1841.34,517.902C1841.34,517.902 1889.27,817.953 1899.66,883.003" style="fill:none;stroke:rgb(15,17,37);stroke-width:8.33px;stroke-dasharray:8.33,25,0,0;"/>
            </g>
        </g>
        <g transform="matrix(0.307279,0,0,0.375777,1822.24,129.917)">
            <g transform="matrix(3.25437,-0,-0,2.66115,-5738.22,540.435)">
                <path d="M1763.52,488.7L1759.9,516.414L1739.9,496.884L1755.81,504.603L1763.52,488.7Z" style="fill:rgb(158,158,158);"/>
                <path d="M1759.9,516.414L1694.94,328.926C1694.94,328.926 1741.55,463.459 1755.81,504.603" style="fill:none;stroke:rgb(158,158,158);stroke-width:8.33px;stroke-dasharray:8.33,25,0,0;"/>
            </g>
        </g>
        <g transform="matrix(0.307279,0,0,0.375777,2573.97,602.866)">
            <g transform="matrix(3.25437,-0,-0,2.66115,-8184.65,-718.154)">
                <path d="M2485.01,353.005L2499.2,328.926L2509.95,354.728L2498.34,341.396L2485.01,353.005Z" style="fill:rgb(158,158,158);"/>
                <path d="M2486.16,517.902C2486.16,517.902 2495.43,383.519 2498.34,341.396" style="fill:none;stroke:rgb(158,158,158);stroke-width:8.33px;stroke-dasharray:8.33,25,0,0;"/>
            </g>
        </g>
        <g transform="matrix(0.768782,0,0,1.37718,2397.54,-379.246)">
            <g transform="matrix(1.30076,-0,-0,0.726123,-3041.88,517.178)">
                <path d="M2526.31,869.444L2515.8,895.346L2501.38,871.402L2514.82,882.885L2526.31,869.444Z" style="fill:rgb(76,76,81);"/>
                <path d="M2486.16,517.902C2486.16,517.902 2509.7,817.591 2514.82,882.885" style="fill:none;stroke:rgb(76,76,81);stroke-width:8.33px;stroke-dasharray:8.33,25,0,0;"/>
            </g>
        </g>
        <g transform="matrix(2.03746,0,0,1.0014,1666.76,-0.416689)">
            <g transform="matrix(0.490806,-0,-0,0.998603,-789.098,332.951)">
                <path d="M1792.01,868.715L1783.52,895.346L1767.31,872.578L1781.59,882.997L1792.01,868.715Z" style="fill:rgb(15,17,37);"/>
                <path d="M1694.94,328.926C1694.94,328.926 1768.64,800.184 1781.59,882.997" style="fill:none;stroke:rgb(15,17,37);stroke-width:8.33px;stroke-dasharray:8.33,25,0,0;"/>
            </g>
        </g>
        <g transform="matrix(2.00701,0,0,0.939444,1867.22,430.325)">
            <g transform="matrix(0.498255,-0,-0,1.06446,-900.954,-103.599)">
                <path d="M2086.55,332.306L2114.23,328.417L2100.73,352.894L2103.93,335.509L2086.55,332.306Z" style="fill:rgb(15,17,37);"/>
                <path d="M1841.34,516.414C1841.34,516.414 2054.22,369.759 2103.93,335.509" style="fill:none;stroke:rgb(15,17,37);stroke-width:8.33px;stroke-dasharray:8.33,25,0,0;"/>
            </g>
        </g>
        <g transform="matrix(1,0,0,1,1028.8,35.9417)">
            <ellipse cx="1144.43" cy="625.984" rx="13.049" ry="11.811" style="fill:rgb(38,17,17);"/>
        </g>
        <g transform="matrix(1,0,0,1,755.906,224.918)">
            <ellipse cx="1144.43" cy="625.984" rx="13.049" ry="11.811" style="fill:rgb(127,79,37);stroke:rgb(129,74,18);stroke-width:8.33px;"/>
        </g>
        <g transform="matrix(1,0,0,1,36.6712,224.409)">
            <ellipse cx="1144.43" cy="625.984" rx="13.049" ry="11.811" style="fill:rgb(127,79,37);stroke:rgb(129,74,18);stroke-width:8.33px;"/>
        </g>
        <g transform="matrix(0.546078,-0.837734,0.837734,0.546078,743.01,1092.18)">
            <text x="938.003px" y="599.37px" style="font-family:'ComicSansMS', 'Comic Sans MS', cursive;font-size:37.5px;">version/7.11.0.1</text>
        </g>
        <g transform="matrix(1,0,0,1,609.506,35.9417)">
            <ellipse cx="1144.43" cy="625.984" rx="13.049" ry="11.811" style="fill:rgb(38,17,17);"/>
        </g>
        <g transform="matrix(2.00701,0,0,0.939444,2355.37,422.125)">
            <g transform="matrix(0.498255,-0,-0,1.06446,-1144.18,-94.8699)">
                <path d="M2387.07,352.471L2401.31,328.417L2412.01,354.238L2400.42,340.886L2387.07,352.471Z" style="fill:rgb(15,17,37);"/>
                <path d="M2374.07,712.736C2374.07,712.736 2395.74,406.913 2400.42,340.886" style="fill:none;stroke:rgb(15,17,37);stroke-width:8.33px;stroke-dasharray:8.33,25,0,0;"/>
            </g>
        </g>
        <rect x="2387.12" y="876.348" width="111.437" height="55.748" style="fill:white;"/>
        <g transform="matrix(1,0,0,1,116.817,170.812)">
            <rect x="2387.12" y="876.348" width="111.437" height="55.748" style="fill:white;"/>
        </g>
        <g transform="matrix(1,0,0,1,1301.2,321.89)">
            <text x="938.003px" y="599.37px" style="font-family:'ComicSansMS', 'Comic Sans MS', cursive;font-size:37.5px;">hotﬁx/JIRA-7</text>
        </g>
        <g transform="matrix(0.5,0,0,0.5,2024.47,519.685)">
            <path d="M297.51,284.482L391.999,850.394" style="fill:none;"/>
            <path d="M296.885,284.586C296.885,284.586 351.561,651.636 375.828,794.925C381.737,829.816 386.217,851.359 386.217,851.359C386.75,854.55 389.773,856.708 392.964,856.175C396.155,855.642 398.313,852.619 397.78,849.428C397.78,849.428 395.019,827.599 389.272,792.68C365.672,649.28 298.136,284.377 298.136,284.377C298.079,284.032 297.751,283.798 297.406,283.856C297.061,283.914 296.827,284.241 296.885,284.586Z" style="fill:rgb(37,16,15);"/>
        </g>
        <g transform="matrix(1.5,0,0,1,1646.52,94.4882)">
            <path d="M382.635,850.394L566.929,850.394" style="fill:none;"/>
            <path d="M382.635,850.711C382.635,850.711 501.818,853.97 548.5,853.801C559.867,853.76 566.929,853.324 566.929,853.324C568.007,853.324 568.883,852.011 568.883,850.394C568.883,848.776 568.007,847.463 566.929,847.463C566.929,847.463 559.867,847.027 548.5,846.986C501.818,846.817 382.635,850.077 382.635,850.077C382.518,850.077 382.423,850.219 382.423,850.394C382.423,850.569 382.518,850.711 382.635,850.711Z" style="fill:rgb(37,16,15);"/>
        </g>
        <g transform="matrix(0.5,0,0,0.5,2213.45,519.685)">
            <path d="M566.929,850.394L661.417,661.417" style="fill:none;"/>
            <path d="M567.497,850.677C567.497,850.677 634.411,731.424 658.064,683.363C663.829,671.65 666.66,664.039 666.66,664.039C668.107,661.145 666.932,657.622 664.039,656.175C661.145,654.728 657.622,655.903 656.175,658.796C656.175,658.796 651.785,665.628 645.873,677.267C621.616,725.026 566.362,850.11 566.362,850.11C566.205,850.423 566.332,850.804 566.645,850.961C566.959,851.118 567.34,850.991 567.497,850.677Z" style="fill:rgb(37,16,15);"/>
        </g>
        <g transform="matrix(1,0,0,1,1315.87,35.9417)">
            <ellipse cx="1144.43" cy="625.984" rx="13.049" ry="11.811" style="fill:rgb(38,17,17);"/>
        </g>
        <g transform="matrix(1,0,0,1,1515.86,491.258)">
            <text x="938.003px" y="599.37px" style="font-family:'ComicSansMS', 'Comic Sans MS', cursive;font-size:41.667px;">release/7.12.0</text>
        </g>
        <g transform="matrix(1.9762,0,0,1,2.23892,-8.2005)">
            <path d="M1050.22,1236.14L1051.29,1236.96L1089.57,1055.55L1086.61,1053.3C1086.61,1053.3 1078.6,1094.63 1070.05,1137.95C1078.47,1094.53 1086.61,1053.3 1086.61,1053.3L1083.66,1051.04L1050.22,1236.14Z" style="fill:rgb(255,120,0);"/>
        </g>
        <g transform="matrix(0.553147,-0.833083,0.833083,0.553147,1434.69,1088.36)">
            <text x="938.003px" y="599.37px" style="font-family:'ComicSansMS', 'Comic Sans MS', cursive;font-size:37.5px;">version/7.12.0.0</text>
        </g>
        <g transform="matrix(1,0,0,0.626296,2355.87,522.947)">
            <g transform="matrix(1,-0,-0,1.59669,-2296.87,-303.287)">
                <path d="M2406.87,868.946L2397.69,895.346L2382.08,872.162L2396.09,882.95L2406.87,868.946Z" style="fill:rgb(15,17,37);"/>
                <path d="M2374.83,719.037C2374.83,719.037 2390.88,842.82 2396.09,882.95" style="fill:none;stroke:rgb(15,17,37);stroke-width:8.33px;stroke-dasharray:8.33,25,0,0;"/>
            </g>
        </g>
        <g transform="matrix(0.109375,0,0,1,2025.11,5.44551)">
            <path d="M1133.89,1041.58L1133.86,1045.25L1197.35,1045.21C1197.22,1045.21 3736.79,1044.36 3736.79,1044.36C3757.35,1044.37 3774.04,1042.55 3774.09,1040.3C3774.14,1038.05 3757.53,1036.22 3736.97,1036.22L3736.92,1036.22L3736.92,1036.22L1197.48,1033.53L1133.86,1033.49L1133.86,1037.16C1104.19,1037.16 1080.12,1038.15 1080.08,1039.37C1080.03,1040.59 1104.02,1041.58 1133.68,1041.58L1133.89,1041.58Z" style="fill:rgb(255,120,0);"/>
        </g>
        <g transform="matrix(0.541928,-0.840425,0.840425,0.541928,1176.09,1104.4)">
            <text x="938.003px" y="599.37px" style="font-family:'ComicSansMS', 'Comic Sans MS', cursive;font-size:37.5px;">version/7.11.1.0</text>
        </g>
        <g transform="matrix(0.568432,-0.82273,0.82273,0.568432,1539.4,1250.48)">
            <text x="938.003px" y="599.37px" style="font-family:'ComicSansMS', 'Comic Sans MS', cursive;font-size:37.5px;">version/7.11.1.1</text>
        </g>
        <g transform="matrix(1,0,0,1,1400.72,224.918)">
            <ellipse cx="1144.43" cy="625.984" rx="13.049" ry="11.811" style="fill:rgb(38,17,17);"/>
        </g>
        <g transform="matrix(1,0,0,1,1289.4,419.751)">
            <ellipse cx="1144.43" cy="625.984" rx="13.049" ry="11.811" style="fill:rgb(127,79,37);stroke:rgb(129,74,18);stroke-width:8.33px;"/>
        </g>
        <g transform="matrix(1,0,0,1,972.555,313.862)">
            <text x="938.003px" y="599.37px" style="font-family:'ComicSansMS', 'Comic Sans MS', cursive;font-size:41.667px;">release/7.11.1</text>
        </g>
    </g>
</svg>
